<svg xmlns="http://www.w3.org/2000/svg" width="512" height="512" fill="none" viewBox="0 0 512 512"><path fill="#646464" d="M176.293 413.04a175.9 175.9 0 0 0 86.712 18.81 175.91 175.91 0 0 0 146.283-89.941 175.9 175.9 0 0 0 22.354-85.866A176.042 176.042 0 0 0 176.091 98.978a177.2 177.2 0 0 0-60.565 50.74 22.51 22.51 0 0 0 2.019 29.407l.269.269a22.45 22.45 0 0 0 17.35 6.456 22.5 22.5 0 0 0 9.096-2.63 22.5 22.5 0 0 0 7.202-6.147 133 133 0 0 1 11.81-13.459 130.822 130.822 0 0 1 223.298 92.529 130.83 130.83 0 0 1-80.741 120.856 130.82 130.82 0 0 1-142.557-28.326 137 137 0 0 1-11.642-13.459 22.42 22.42 0 0 0-16.312-8.759 22.42 22.42 0 0 0-17.335 6.505l-.269.269a22.44 22.44 0 0 0-1.986 29.34 177.1 177.1 0 0 0 60.565 50.471"/><path fill="#646464" d="M344.867 293.458a96.4 96.4 0 0 1-54.257 49.999 96.41 96.41 0 0 1-123.719-57.267 96.4 96.4 0 0 1 3.011-73.721 97.4 97.4 0 0 1 27.658-33.209 15.345 15.345 0 0 1 20.188 1.346h.168a15.24 15.24 0 0 1 4.442 11.843 15.44 15.44 0 0 1-5.989 11.171 65 65 0 0 0-6.73 5.821 65.613 65.613 0 0 0 20.862 106.796 65.575 65.575 0 0 0 79.918-23.799 65.58 65.58 0 0 0-8.048-82.997 67 67 0 0 0-6.73-5.922 15.32 15.32 0 0 1-6.021-11.148 15.3 15.3 0 0 1 4.44-11.866l.168-.169a15.315 15.315 0 0 1 20.189-1.345 96.8 96.8 0 0 1 27.624 33.31 96.61 96.61 0 0 1 2.826 81.09z"/><path fill="#646464" d="M256.039 295.612a15.547 15.547 0 0 1-15.512-15.512V175.289a15.545 15.545 0 0 1 15.512-15.511 15.545 15.545 0 0 1 15.511 15.511V280.1a15.547 15.547 0 0 1-15.511 15.512"/></svg>