<svg xmlns="http://www.w3.org/2000/svg" width="512" height="512" fill="none" viewBox="0 0 512 512"><style>@media (prefers-color-scheme:dark){path{fill:#fff}}</style><path fill="#000" d="M300.084 242.955h31.079a2.73 2.73 0 0 0 2.728-2.718v-27.721a2.729 2.729 0 0 0-2.728-2.732h-31.079a2.71 2.71 0 0 0-2.713 2.718v27.735a2.72 2.72 0 0 0 2.713 2.718m-43.325-79.769h31.064a2.736 2.736 0 0 0 2.728-2.733v-27.735a2.729 2.729 0 0 0-2.728-2.718h-31.064c-.72 0-1.41.286-1.919.796a2.72 2.72 0 0 0-.795 1.922v27.735c0 1.499 1.203 2.733 2.714 2.733m0 39.884h31.064a2.745 2.745 0 0 0 2.728-2.732v-27.721a2.729 2.729 0 0 0-2.728-2.718h-31.064a2.714 2.714 0 0 0-2.714 2.718v27.721a2.73 2.73 0 0 0 2.714 2.732m-42.973 0h31.093a2.725 2.725 0 0 0 2.698-2.732v-27.721a2.714 2.714 0 0 0-2.713-2.718H213.8a2.71 2.71 0 0 0-2.713 2.718v27.721a2.74 2.74 0 0 0 2.713 2.732m-43.472 0h31.079a2.733 2.733 0 0 0 2.713-2.732v-27.721a2.712 2.712 0 0 0-2.713-2.718h-31.079a2.73 2.73 0 0 0-2.728 2.718v27.721c0 1.498 1.232 2.718 2.728 2.732m86.431 39.885h31.064a2.73 2.73 0 0 0 2.728-2.718v-27.721a2.729 2.729 0 0 0-2.728-2.732h-31.064c-.72 0-1.41.286-1.919.796a2.72 2.72 0 0 0-.795 1.922v27.735a2.71 2.71 0 0 0 2.714 2.718m-42.973 0h31.093a2.713 2.713 0 0 0 2.698-2.718v-27.721a2.7 2.7 0 0 0-.2-1.041 2.73 2.73 0 0 0-1.461-1.479 2.7 2.7 0 0 0-1.037-.212h-31.093a2.713 2.713 0 0 0-2.699 2.718v27.735a2.72 2.72 0 0 0 2.713 2.718m-43.472 0h31.079c.719 0 1.41-.286 1.918-.796a2.72 2.72 0 0 0 .795-1.922v-27.721a2.71 2.71 0 0 0-.784-1.926 2.72 2.72 0 0 0-1.914-.806h-31.094a2.73 2.73 0 0 0-2.728 2.732v27.721a2.73 2.73 0 0 0 2.728 2.718m-42.826 0h31.093a2.713 2.713 0 0 0 2.699-2.718v-27.721a2.728 2.728 0 0 0-1.662-2.52 2.7 2.7 0 0 0-1.037-.212h-31.093a2.713 2.713 0 0 0-2.699 2.718v27.735a2.697 2.697 0 0 0 2.699 2.718m316.022-17.452c-.953-.75-9.856-7.493-28.659-7.493a89.5 89.5 0 0 0-14.813 1.279c-3.637-24.974-24.244-37.167-25.168-37.696l-5.045-2.924-3.315 4.804a67.7 67.7 0 0 0-8.976 21.008c-3.373 14.249-1.32 27.647 5.911 39.091-8.727 4.877-22.734 6.067-25.579 6.17H106.015a11 11 0 0 0-7.764 3.221 11.04 11.04 0 0 0-3.236 7.767 167.4 167.4 0 0 0 10.149 59.673c7.994 20.978 19.874 36.432 35.347 45.893 17.307 10.621 45.467 16.703 77.367 16.703a230.5 230.5 0 0 0 42.973-3.908 179.4 179.4 0 0 0 56.07-20.405 154.2 154.2 0 0 0 38.28-31.379c18.363-20.831 29.304-44.027 37.444-64.638h3.242c20.122 0 32.486-8.065 39.306-14.822a43 43 0 0 0 10.37-15.366L447 228.25z"/></svg>