<svg xmlns="http://www.w3.org/2000/svg" width="512" height="512" fill="none" viewBox="0 0 512 512"><path fill="#646464" fill-rule="evenodd" d="M333.307 108.289c-3.228.694-3.681 3.895-3.228 12.419.481 9.068 4.219 21.973 21.067 34.143 7.329 5.478 15.856 4.022 13.166 8.976-7.361 11.318-10.826 13.345-25.898 18-6.998 2.161-18.803 1.207-32.523-2.618-13.719-3.824-29.287-10.187-44.55-17.061s-30.234-14.246-43.158-20.112-23.086-10.43-32.269-11.174c-4.78-.388-9.652-.565-14.725-.614-15.219-.145-32.241.874-54.008.874-14.749 0-25.726 4.936-31.044 13.931s-5.349 19.173-5.638 30.165c-.282 10.739-.8 18.731-.27 25.96.532 7.229 2.497 14.106 7.036 19.888 2.049 2.609 4.15 4.14 7.276 6.43s7.085 4.917 11.807 7.793c9.443 5.753 21.916 12.481 36.292 18.944 28.75 12.926 65.006 24.892 99.812 24.892 80.641 0 158.383-62.397 158.383-62.397a8.217 8.217 0 1 0-10.165-12.913s-76.285 58.876-148.218 58.876c-30.963 0-65.626-11.107-93.074-23.447-13.724-6.17-25.671-12.624-34.482-17.991-4.405-2.683-8.033-5.101-10.643-7.013-2.609-1.912-4.39-3.741-4.063-3.323a14.7 14.7 0 0 1-2.216-3.87h42.087c14.934 0 25.663 6.056 40.898 13.07s34.504 14.347 63.361 13.815c41.308-.762 66.121-8.931 89.753-22.548 13.663-7.874 23.811-14.531 32.636-24.309 5.72-6.691 9.18-11.343 13.604-18.961 2.706-4.758 7.8-5.295 14.116-5.251 12.037.086 27.466-15.01 32.608-23.71s7.814-17.368.32-17.405-7.179 7.556-18.155 8.521c-10.94.358-24.89 1.847-30.897 13.502-1.072-4.29-6.338-16.731-23.644-21.158-17.306-4.428-10.573-16.64-21.354-14.324m-162.28 38.417c14.506-1.031 27.344 4.499 40.365 10.295 12.549 5.696 27.598 13.105 43.201 20.132 15.602 7.027 31.747 13.686 46.885 17.907 7.158 1.995 14.082 3.454 20.734 4.1-20.609 11.329-41.029 17.676-78.195 18.361-26.049.48-41.674-5.631-56.185-12.312-14.511-6.682-28.385-14.575-47.771-14.575H96.523c.084-4.208.248-9.077.403-14.964.283-10.745 1.218-18.615 3.357-22.234s5.113-5.861 16.898-5.861c22.258 0 39.443-.955 53.846-.849m-20.097 15.8a8.438 8.438 0 1 0 0 16.876 8.438 8.438 0 0 0 0-16.876m-56.41 79.529q-.793-.022-1.592.048c-3.708.326-7.226 2.421-9.274 5.196s-2.86 6.005-2.86 9.175c0 84.26 72.563 147.546 162.121 147.546 89.557 0 162.12-63.286 162.12-147.546 0-3.17-.812-6.399-2.86-9.175-2.047-2.775-5.566-4.87-9.274-5.196a14.4 14.4 0 0 0-3.165.079c-2.78.37-5.389 1.466-7.884 3.065-25.507 16.349-74.649 57.492-138.937 57.492s-113.43-41.143-138.938-57.492c-2.495-1.599-5.103-2.695-7.884-3.065q-.78-.105-1.573-.127m1.225 15.633c.108.063.08.015.199.091 22.989 14.736 76.24 59.845 146.971 59.845 70.73 0 123.981-45.109 146.971-59.845.118-.076.091-.028.199-.091-.054 5.747-.164 8.151-.941 13.662-5.751 7.753-68.332 75.775-146.229 75.775s-140.479-68.022-146.23-75.775c-.777-5.511-.887-7.915-.94-13.662m8.982 45.878c26.63 24.48 78.632 60.236 138.188 60.236s111.557-35.756 138.188-60.236c-20.474 51.046-73.844 85.569-138.188 85.569-64.345 0-117.714-34.523-138.188-85.569" clip-rule="evenodd"/></svg>