<svg xmlns="http://www.w3.org/2000/svg" width="512" height="512" fill="none" viewBox="0 0 512 512"><path fill="#646464" d="M138.229 88.014c-19.172 0-26.228 7.084-26.228 26.306v231.851c-.01 2.024.083 4.047.279 6.061.433 4.2.517 8.26 4.416 12.88.377.462 4.345 3.43 4.345 3.43 2.138 1.05 3.606 1.82 6.009 2.8l116.469 48.874c6.05 2.785 8.579 3.863 12.967 3.779h.028c4.388.084 6.917-.994 12.967-3.779l116.469-48.888c2.403-.98 3.871-1.736 6.008-2.8 0 0 3.969-2.954 4.346-3.402 3.913-4.62 3.983-8.694 4.416-12.88.196-2.019.289-4.047.279-6.075V114.32c0-19.222-7.07-26.32-26.242-26.32zm186.769 43.539h9.502c15.901 0 23.587 7.742 23.587 23.744v26.32h-19.2v-25.2c0-5.166-2.375-7.56-7.308-7.56h-3.283c-5.129 0-7.504 2.38-7.504 7.546v81.339c0 5.166 2.375 7.56 7.504 7.56h3.661c4.932 0 7.308-2.394 7.308-7.56v-29.064h19.185v30.002c0 16.016-7.853 23.94-23.755 23.94h-9.697c-15.902 0-23.755-7.924-23.755-23.94v-83.187c0-16.016 7.853-23.926 23.755-23.926zm-170.281 1.12h43.514v17.836H174.28v36.442h23.028V204.8H174.28v38.836h24.314v17.85h-43.877zm53.323 0h30.714c15.901 0 23.755 7.896 23.755 23.912v34.23c0 16.015-7.854 23.939-23.755 23.939h-11.165v46.732h-19.563zm63.3 0h19.563v128.813H271.34zm-43.737 17.29v47.488h8.035c4.946 0 7.308-2.394 7.308-7.56v-32.368c0-5.152-2.376-7.56-7.308-7.56zm-52.261 142.056c2.821.011 5.617.523 8.259 1.512a24.4 24.4 0 0 1 6.847 4.186l-6.316 7.644a17.5 17.5 0 0 0-4.304-2.73 12.7 12.7 0 0 0-5.073-.952 9.2 9.2 0 0 0-3.912.84 9.8 9.8 0 0 0-3.13 2.282 11 11 0 0 0-2.11 3.402 11.2 11.2 0 0 0-.783 4.186v.112c-.01 1.483.255 2.955.783 4.34a9.8 9.8 0 0 0 2.194 3.43 10.3 10.3 0 0 0 3.325 2.24c1.343.552 2.783.829 4.234.812a11.03 11.03 0 0 0 6.218-1.624v-4.746h-7.657v-7.91h17.872v17.57a28.2 28.2 0 0 1-7.322 4.298 25 25 0 0 1-9.544 1.722 22.9 22.9 0 0 1-8.412-1.498 20.4 20.4 0 0 1-6.679-4.2 19.2 19.2 0 0 1-4.444-6.37 20.2 20.2 0 0 1-1.607-8.12v-.112a20 20 0 0 1 1.579-7.98 20.3 20.3 0 0 1 4.36-6.44 19.8 19.8 0 0 1 6.623-4.326 22 22 0 0 1 8.356-1.554q.315-.004.629 0zm167.164.112a28 28 0 0 1 8.552 1.316 22.5 22.5 0 0 1 7.085 3.878l-5.394 7.644a21.8 21.8 0 0 0-5.45-2.87 16.4 16.4 0 0 0-5.421-.98 4.84 4.84 0 0 0-2.907.728 2.15 2.15 0 0 0-.978 1.778v.112c-.009.413.097.821.307 1.176a2.77 2.77 0 0 0 1.062.924c.657.345 1.345.626 2.055.84.866.28 1.956.56 3.297.854a47 47 0 0 1 6.009 1.708 18 18 0 0 1 4.583 2.38 9.5 9.5 0 0 1 2.893 3.36 10.36 10.36 0 0 1 .992 4.718v.112a12.14 12.14 0 0 1-1.132 5.348 11.5 11.5 0 0 1-3.2 3.99 14.4 14.4 0 0 1-4.933 2.52c-2.09.595-4.255.882-6.427.854a30.1 30.1 0 0 1-9.922-1.624 24 24 0 0 1-8.286-4.844l6.009-7.196c3.87 3.122 8.076 4.69 12.576 4.69a6.4 6.4 0 0 0 3.298-.7 2.2 2.2 0 0 0 1.145-1.988v-.112a2.1 2.1 0 0 0-.279-1.078 2.86 2.86 0 0 0-1.02-.924 10.5 10.5 0 0 0-1.998-.868 34 34 0 0 0-3.256-.868 70 70 0 0 1-5.771-1.582 17.6 17.6 0 0 1-4.625-2.24 10.1 10.1 0 0 1-3.102-3.402 10.2 10.2 0 0 1-1.146-5.04v-.112a12.1 12.1 0 0 1 1.034-5.026 11.1 11.1 0 0 1 2.99-3.962 14.1 14.1 0 0 1 4.751-2.59 19.8 19.8 0 0 1 6.26-.924zm-130.763.35h10.368l16.531 39.34h-11.528l-2.837-6.986h-14.979l-2.767 6.972h-11.319zm30.7.28h11.374l9.264 15.12 9.265-15.12h11.374v39.06h-10.703v-22.428l-9.936 15.274h-.223l-9.879-15.162v22.302h-10.536zm48.474 0h31.23v9.212h-20.583v5.908h18.641v8.54h-18.641v6.188h20.863v9.212h-31.51zm-74.06 12.558-4.401 11.102h8.719zm-15.999 72.659h111.983L255.69 396.85z"/></svg>