<svg xmlns="http://www.w3.org/2000/svg" width="512" height="512" fill="none" viewBox="0 0 512 512"><path fill="#646464" d="M312.339 211.721h-67.095V80h67.095C348.547 80 378 109.539 378 145.853c0 36.315-29.453 65.868-65.661 65.868m-45.583-21.574h45.583c24.348 0 44.149-19.874 44.149-44.279s-19.815-44.279-44.149-44.279h-45.583zm0 21.574h-67.08c-36.209 0-65.661-29.538-65.661-65.853S163.467 80 199.676 80h67.095v131.721zm-67.08-110.146c-24.349 0-44.15 19.873-44.15 44.278 0 24.406 19.801 44.294 44.15 44.294h45.583v-88.572zm67.08 220.278h-67.08c-36.209 0-65.661-29.538-65.661-65.853s29.452-65.853 65.661-65.853h67.095v131.706zm-67.08-110.132c-24.349 0-44.15 19.874-44.15 44.279s19.816 44.279 44.15 44.279h45.583v-88.558zM200.027 432C163.628 432 134 402.461 134 366.147c0-36.315 29.453-65.854 65.661-65.854h67.095v65.135c0 36.711-29.935 66.572-66.729 66.572m-.351-110.147a44.15 44.15 0 0 0-31.201 12.986 44.4 44.4 0 0 0-12.949 31.293c0 24.42 19.962 44.279 44.516 44.279 24.933 0 45.231-20.182 45.231-44.998v-43.56zm112.663 0h-1.434c-36.208 0-65.661-29.538-65.661-65.853s29.453-65.853 65.661-65.853h1.434C348.547 190.147 378 219.685 378 256s-29.453 65.853-65.661 65.853m-1.419-110.132c-24.349 0-44.149 19.874-44.149 44.279s19.815 44.279 44.149 44.279h1.433c24.349 0 44.15-19.874 44.15-44.279s-19.83-44.279-44.164-44.279z"/></svg>