<svg xmlns="http://www.w3.org/2000/svg" width="512" height="512" fill="none" viewBox="0 0 512 512"><path fill="#646464" d="m130.274 382.775 15.679-3.22c14.756-3.066 29.595-5.81 44.252-9.24a69.37 69.37 0 0 0 33.972-19.766 69.3 69.3 0 0 0 17.77-35.044 85 85 0 0 0 1.19-16.142l5.123-1.26a69.1 69.1 0 0 0 33.799-18.412 69.05 69.05 0 0 0 18.699-33.627 53.2 53.2 0 0 0 1.792-14.84c-.028-1.344 0-2.702 0-4.27 1.316-.322 2.519-.658 3.737-.938a63.73 63.73 0 0 0 37.519-24.57 80.74 80.74 0 0 0 14.069-67.956c-.294-1.232-.49-2.506-.854-3.696a8.8 8.8 0 0 0-3.926-4.989 8.83 8.83 0 0 0-6.266-1.059l-44.573 9.128-48.788 10.024-56.025 11.508a27196 27196 0 0 1-61.219 12.502 15.8 15.8 0 0 1-5.908.84c-.098-1.036-.238-1.96-.238-2.856-.014-15.68.028-31.402-.07-47.096a4.53 4.53 0 0 1 2.436-4.298 119 119 0 0 1 26.599-12.04 241 241 0 0 1 38.526-9.044c7.643-1.19 15.329-1.876 23.001-2.73a375 375 0 0 1 49.361-1.428c6.944.14 13.888.714 20.817 1.358 7.588.714 15.189 1.54 22.721 2.688a202.8 202.8 0 0 1 56.095 15.736c3.668 1.722 7.126 3.92 10.696 5.908a3.01 3.01 0 0 1 1.708 3.122c-.056.756 0 1.54 0 2.282v273.267c0 4.858.63 3.92-3.668 6.608a118 118 0 0 1-27.453 11.998 235 235 0 0 1-39.912 8.82c-8.399 1.12-16.799 2.044-25.255 2.898-3.877.42-7.783.49-11.689.602-7.896.21-15.791.574-23.673.42-8.903-.196-17.807-.826-26.696-1.386a281 281 0 0 1-35.265-4.648 188 188 0 0 1-45.133-13.664c-3.822-1.82-7.42-4.06-11.158-6.09a3.44 3.44 0 0 1-2.016-3.472c.112-3.22 0-6.44.042-9.66 0-.686.14-1.344.224-2.282zm139.783-149.129a17.5 17.5 0 0 1-1.26 7.7 36.7 36.7 0 0 1-10.664 16.931 36.74 36.74 0 0 1-17.964 8.829c-18.199 3.92-36.496 7.518-54.766 11.27l-7.979 1.596a16.07 16.07 0 0 0-10.547 6.552 16.03 16.03 0 0 0 4.024 22.531 16.078 16.078 0 0 0 12.165 2.502c8.329-1.54 16.603-3.388 24.904-5.082.896-.196 1.792-.308 2.926-.49a36.14 36.14 0 0 1-7.699 19.74 39.22 39.22 0 0 1-23.981 14.28c-15.441 3.122-30.883 6.3-46.31 9.464-.728.14-1.484.182-2.184.28-.672-2.044-.854-145.321-.196-148.821l196.662-40.362a21 21 0 0 1-.224 2.52 48.1 48.1 0 0 1-10.331 21.028 33.6 33.6 0 0 1-19.963 11.256c-15.539 3.024-31.051 6.3-46.562 9.478l-13.439 2.744a16.35 16.35 0 0 0-13.341 14.798 16.05 16.05 0 0 0 12.249 16.604 24.46 24.46 0 0 0 11.297-.756c6.888-1.4 13.762-2.842 20.649-4.256.742-.14 1.512-.196 2.52-.322z"/></svg>