<svg xmlns="http://www.w3.org/2000/svg" width="512" height="512" fill="none" viewBox="0 0 512 512"><path fill="#646464" d="M271.994 425.37a22.602 22.602 0 0 1-24.64 4.907 22.6 22.6 0 0 1-7.333-4.907L86.624 271.967A22.58 22.58 0 0 1 80 255.989a22.58 22.58 0 0 1 6.624-15.978L192.09 134.565l40.083 40.081a27.127 27.127 0 0 0 14.139 34.112v97.673a27.12 27.12 0 0 0-15.202 30.433 27.123 27.123 0 0 0 43.505 15.34 27.1 27.1 0 0 0 9.485-15.34 27.11 27.11 0 0 0-15.202-30.433v-95.062l36.784 36.781a27.13 27.13 0 0 0 28.344 36.423 27.127 27.127 0 0 0 19.926-41.628 27.134 27.134 0 0 0-32.284-10.78l-38.631-38.63a27.13 27.13 0 0 0-6.263-28.609 27.14 27.14 0 0 0-28.614-6.251l-40.113-40.095 31.973-31.957A22.58 22.58 0 0 1 256 80a22.6 22.6 0 0 1 15.979 6.623l153.397 153.402a22.6 22.6 0 0 1 4.903 7.33 22.6 22.6 0 0 1 0 17.297 22.6 22.6 0 0 1-4.903 7.33z"/></svg>