<svg xmlns="http://www.w3.org/2000/svg" width="512" height="512" fill="none" viewBox="0 0 512 512"><path fill="#646464" d="M328.38 273.78a55 55 0 0 1 5.824-.322c9.8 0 17.192 2.226 22.386 6.566 5.18 4.396 7.77 10.584 7.77 18.676a40.06 40.06 0 0 1-6.02 20.37c-4.074 6.888-10.85 14.924-20.44 24.178-6.342 6.244-14.854 13.664-25.494 22.288a673 673 0 0 1-31.85 24.388v29.162h138.53V385.36H339.86c3.066-2.226 8.26-6.09 15.54-11.648 7.266-5.6 14.462-11.69 21.7-18.354 11.438-10.64 19.95-21 25.508-31.01a64.74 64.74 0 0 0 8.358-31.752c0-16.982-5.824-30.156-17.458-39.41-11.592-9.268-28.462-13.916-50.582-13.916-4.816 0-9.688.21-14.504.686V172.56H282.04v65.814h-68.53V172.56H167.1v179.844h46.41V273.15h68.46v79.254h.546c4.34-3.388 8.722-6.818 13.062-10.36a400 400 0 0 0 25.564-22.232 208 208 0 0 0 7.238-7.406zM256.154 414.2A158.58 158.58 0 0 1 97.8 255.86 158.27 158.27 0 0 1 256.154 97.786a158 158 0 0 1 146.043 97.564 158 158 0 0 1 12.017 60.496v4.914H424v-4.914A167.79 167.79 0 0 0 256.154 88 168.11 168.11 0 0 0 88 255.846 168.36 168.36 0 0 0 256.154 424h4.928v-9.8z"/></svg>