<svg xmlns="http://www.w3.org/2000/svg" width="512" height="512" fill="none" viewBox="0 0 512 512"><path fill="#646464" d="M196.745 80c-.686 0-1.354.224-1.901.636a3.14 3.14 0 0 0-1.13 1.652c-4.649 16.192 2.634 31.533 12.329 43.047a91 91 0 0 0 7.003 7.348 30.1 30.1 0 0 0-9.783.293c-17.42 3.417-32.265 14.447-40.313 37.136a56.95 56.95 0 0 0-2.942 21.501 23.03 23.03 0 0 0-12.239 8.168A22.9 22.9 0 0 0 143 213.672a23.27 23.27 0 0 0 5.092 14.423 23.4 23.4 0 0 0 12.96 8.178l.383 176.675a8.4 8.4 0 0 0 4.002 7.143c7.9 4.546 30.116 11.909 76.652 11.909 47.639 0 69.149-9.944 76.226-15.253q.06-.05.117-.103a8.355 8.355 0 0 0 3.031-6.439c.03-5.045.03-16.661.03-23.525a2.08 2.08 0 0 1 .631-1.514 2.11 2.11 0 0 1 1.531-.598c5.841.088 12.786.088 19.392.073a26.93 26.93 0 0 0 19.048-7.807 26.8 26.8 0 0 0 5.847-8.695A26.7 26.7 0 0 0 370 357.875v-85.126c0-7.1-2.828-13.91-7.863-18.932a26.9 26.9 0 0 0-18.987-7.849h-19.553a2.053 2.053 0 0 1-2.104-2.112v-8.389h.103v-.015a23.16 23.16 0 0 0 14.254-7.693 23.03 23.03 0 0 0 5.696-15.128c0-11.968-9.225-21.839-20.951-22.924-.368-21.091-6.429-31.182-10.828-37.84l-.074-.103c-5.355-7.48-17.552-18.803-33.471-19.301-7.4-.235-12.388 1.818-16.551 3.725-3.193 1.467-6.18 2.596-9.858 3.227.03-18.862 13.903-29.055 13.903-29.055a3.13 3.13 0 0 0 .736-4.371s-1.28-1.789-3.09-3.813c-1.78-1.995-3.957-4.312-6.914-5.544a3.2 3.2 0 0 0-1.163-.25 3.15 3.15 0 0 0-2.133.807 63.2 63.2 0 0 0-12.874 16.148 50 50 0 0 0-1.956 4.004 51.3 51.3 0 0 0-5.606-12.408c-6.665-10.589-17.419-18.538-32.809-24.698a3.2 3.2 0 0 0-1.162-.235m2.295 7.685c12.506 5.544 21.039 12.174 26.336 20.578 4.031 6.424 6.267 14.109 7.12 23.232a45 45 0 0 0-.176 6.776q-1.24-.366-2.472-.763a80.7 80.7 0 0 1-18.979-16.221c-8.107-9.636-13.756-21.414-11.829-33.602m54.525 16.046c1.03.792 2.074 1.481 3.119 2.64.5.572.471.586.853 1.07-4.884 4.518-15.742 16.779-14.006 35.978.071.804.45 1.549 1.058 2.082a3.16 3.16 0 0 0 2.208.778c6.9-.25 11.505-2.523 15.537-4.386 4.016-1.848 7.473-3.344 13.697-3.138 12.873.396 24.114 10.486 28.528 16.632 4.34 6.585 9.563 14.666 9.754 34.613a24.4 24.4 0 0 0-6.032 2.083 28.44 28.44 0 0 0-10.486-12.363 28.6 28.6 0 0 0-15.555-4.651 28.6 28.6 0 0 0-17.378 5.956 28.45 28.45 0 0 0-10.135 15.282 26.2 26.2 0 0 0-8.937-6.886 26.3 26.3 0 0 0-11.013-2.501c-7.121 0-13.389 3.007-18.141 7.583a27.44 27.44 0 0 0-9.128-17.002 27.6 27.6 0 0 0-18.09-6.832c-9.548 0-17.92 4.914-22.834 12.32a45.4 45.4 0 0 1 2.31-10.78c7.503-21.076 19.936-29.993 35.604-33.058 5.4-1.071 9.77-.162 14.566 1.393 4.781 1.555 9.872 3.843 16.095 5.016a3.15 3.15 0 0 0 3.593-2.1c.158-.481.198-.994.115-1.493-1.648-9.827 1.074-18.568 4.943-25.579a54.4 54.4 0 0 1 9.755-12.657m-64.147 73.23c3.403-.01 6.758.796 9.782 2.35a21.2 21.2 0 0 1 7.596 6.578 21.1 21.1 0 0 1 2.675 19.306 3.132 3.132 0 0 0 1.198 3.647c.383.259.818.431 1.274.503h.074c.744.12 1.506-.03 2.149-.423a3.14 3.14 0 0 0 1.352-1.718 20.14 20.14 0 0 1 7.296-10.119 20.24 20.24 0 0 1 11.873-3.901 20.24 20.24 0 0 1 11.901 3.811 20.14 20.14 0 0 1 7.374 10.062 3.14 3.14 0 0 0 1.416 1.797 3.16 3.16 0 0 0 4.173-.898c.455-.645.65-1.437.546-2.219a22.08 22.08 0 0 1 5.613-17.113 22.2 22.2 0 0 1 7.48-5.396 22.3 22.3 0 0 1 9.035-1.896c9.975 0 18.376 6.527 21.215 15.488a3.153 3.153 0 0 0 3.811 2.097l2.207-.586q.394-.099.75-.294a16.8 16.8 0 0 1 16.741.1 16.7 16.7 0 0 1 6.095 6.14 16.66 16.66 0 0 1 2.205 8.354 16.7 16.7 0 0 1-4.124 11.004 16.8 16.8 0 0 1-10.368 5.584h-.015a32.7 32.7 0 0 0-7.135 1.848 157 157 0 0 1-17.302 5.353 3.14 3.14 0 0 0-2.384 2.728 18.7 18.7 0 0 1-2.148 7.011 30.3 30.3 0 0 0-3.516 16.294l.015 2.215a6.41 6.41 0 0 1-2.354 5.28 9.8 9.8 0 0 1-6.327 2.053 8.65 8.65 0 0 1-6.136-2.527 8.6 8.6 0 0 1-1.873-2.812 8.6 8.6 0 0 1-.642-3.314 11.75 11.75 0 0 0-1.497-5.716 11.8 11.8 0 0 0-4.093-4.272l-.03-.029a18.84 18.84 0 0 1-7.827-9.328 3.14 3.14 0 0 0-3.045-2.024 287.3 287.3 0 0 1-79.007-8.8l-.044-.03a133 133 0 0 0-12.329-2.845h.044a17.08 17.08 0 0 1-9.876-5.859 16.98 16.98 0 0 1-3.91-10.773c0-9.079 7.18-16.397 16.199-16.72a3.15 3.15 0 0 0 3.001-2.581 21.15 21.15 0 0 1 7.278-12.484 21.27 21.27 0 0 1 13.614-4.926m125.778 60.222v6.673c0 4.605 3.81 8.404 8.415 8.404h19.553a20.6 20.6 0 0 1 14.534 6.001 20.46 20.46 0 0 1 6.02 14.488v85.126c0 2.696-.534 5.366-1.572 7.855a20.5 20.5 0 0 1-11.168 11.086 20.6 20.6 0 0 1-7.887 1.533h-.03c-6.591.03-13.506 0-19.273-.073a8.46 8.46 0 0 0-6.066 2.404 8.39 8.39 0 0 0-2.526 6c0 6.864 0 18.509-.03 23.511 0-.005 0 .005 0 0 0 .616-.279 1.188-.735 1.584-5.091 3.813-25.747 13.933-72.313 13.933-45.711 0-67.486-7.627-73.415-11.029a2.095 2.095 0 0 1-.956-1.731l-.368-175.34c2.133.484 4.237 1.027 6.341 1.613h.044c1.692.455 3.619.939 5.635 1.423v152.093a5.22 5.22 0 0 0 2.648 4.547c6.665 3.183 25.997 10.736 59.895 10.736 34.133 0 52.892-9.181 59.174-12.965a5.25 5.25 0 0 0 1.769-1.894c.422-.768.643-1.63.644-2.506l.014-149.747c3.929-1.1 7.813-2.317 11.653-3.725m-117.554 13.112a7.27 7.27 0 0 1 5.139 2.112 7.219 7.219 0 0 1 2.129 5.118v125.811a7.22 7.22 0 0 1-2.124 5.113 7.26 7.26 0 0 1-5.129 2.118 7.26 7.26 0 0 1-6.714-4.461 7.2 7.2 0 0 1-.554-2.77V257.525a7.232 7.232 0 0 1 4.488-6.684 7.2 7.2 0 0 1 2.765-.546m127.293 16.72a9.77 9.77 0 0 0-6.882 2.848 9.7 9.7 0 0 0-2.857 6.861v76.384a9.7 9.7 0 0 0 2.857 6.861 9.77 9.77 0 0 0 6.882 2.848h16.773a9.77 9.77 0 0 0 6.882-2.848 9.7 9.7 0 0 0 2.857-6.861v-76.399a9.7 9.7 0 0 0-2.857-6.861 9.77 9.77 0 0 0-6.882-2.848zm0 6.277h16.773c.909 0 1.781.36 2.424 1.001a3.4 3.4 0 0 1 1.004 2.416v76.414a3.42 3.42 0 0 1-1.009 2.407 3.44 3.44 0 0 1-2.419.995h-16.773c-.909 0-1.781-.36-2.424-1.001a3.41 3.41 0 0 1-1.004-2.416v-76.399c0-.906.362-1.775 1.004-2.416a3.43 3.43 0 0 1 2.424-1.001"/></svg>