<svg xmlns="http://www.w3.org/2000/svg" width="512" height="512" fill="none" viewBox="0 0 512 512"><path fill="#646464" d="m408.894 186.364-1.442-3.22-2.366 2.632c-5.712 6.496-12.992 11.48-21.07 14.504l-2.226.854.924 2.17a136.4 136.4 0 0 1 10.5 52.626c0 75.67-61.558 137.284-137.284 137.284s-137.228-61.558-137.228-137.228 61.628-137.284 137.284-137.284c20.538 0 40.362 4.466 58.8 13.258l2.17 1.05.924-2.17a52.74 52.74 0 0 1 15.484-20.342l2.758-2.226-3.15-1.638A166.7 166.7 0 0 0 256 88.001C163.334 88 88 163.334 88 256s75.334 168 168 168 168-75.334 168-168c0-24.22-5.054-47.642-15.092-69.622zm-152.908-6.958a76.67 76.67 0 0 0-76.58 76.58 76.666 76.666 0 0 0 76.58 76.58 76.664 76.664 0 0 0 76.58-76.58 76.71 76.71 0 0 0-76.58-76.58m144.83-28.098a34.9 34.9 0 0 1-10.227 24.69 34.92 34.92 0 0 1-24.689 10.226 34.922 34.922 0 0 1-34.916-34.916 34.916 34.916 0 0 1 69.832 0"/></svg>