<svg xmlns="http://www.w3.org/2000/svg" width="512" height="512" fill="none" viewBox="0 0 512 512"><path fill="#646464" d="M207.205 348.777s-14.343 8.356 10.222 11.175c29.763 3.404 44.973 2.916 77.763-3.289 0 0 8.639 5.407 20.68 10.094-73.533 31.538-166.413-1.828-108.665-17.98m-8.99-41.162s-16.091 11.926 8.494 14.474c31.795 3.286 56.897 3.554 100.357-4.82 0 0 5.997 6.1 15.442 9.432-88.888 26.025-187.891 2.048-124.293-19.086M273.957 237.78c18.128 20.89-4.754 39.671-4.754 39.671s46.002-23.769 24.88-53.548c-19.735-27.757-34.863-41.544 47.044-89.101 0 0-128.572 32.14-67.17 102.978"/><path fill="#646464" d="M371.206 379.227s10.618 8.766-11.698 15.54c-42.431 12.868-176.638 16.748-213.912.515-13.392-5.837 11.732-13.931 19.636-15.639 8.241-1.786 12.947-1.461 12.947-1.461-14.903-10.503-96.322 20.634-41.351 29.565 149.904 24.326 273.255-10.955 234.378-28.52M214.111 264.959s-68.259 16.233-24.17 22.134c18.618 2.494 55.718 1.922 90.298-.982 28.253-2.377 56.606-7.452 56.606-7.452s-9.953 4.274-17.163 9.196c-69.33 18.257-203.23 9.754-164.677-8.91 32.592-15.781 59.106-13.986 59.106-13.986m122.451 68.519c70.47-36.649 37.885-71.871 15.141-67.127-5.561 1.16-8.055 2.169-8.055 2.169s2.07-3.25 6.018-4.648c44.991-15.829 79.587 46.698-14.512 71.465 0-.006 1.08-.985 1.408-1.859M294.083 58s39.019 39.086-37.018 99.171c-60.977 48.213-13.904 75.696-.021 107.111-35.598-32.15-61.708-60.455-44.194-86.797 25.72-38.659 96.972-57.41 81.233-119.485"/><path fill="#646464" d="M221.037 432.821c67.627 4.328 171.505-2.41 173.963-34.448 0 0-4.727 12.145-55.895 21.781-57.728 10.88-128.942 9.612-171.165 2.633 0 0 8.65 7.172 53.097 10.034"/></svg>