<svg xmlns="http://www.w3.org/2000/svg" width="512" height="512" fill="none" viewBox="0 0 512 512"><path fill="#646464" d="M121.25 327.774 80 256.583v-.96l41.181-71.191h54.588L148.75 231.07l-13.887 24.004c-.207.343-.275.755-.275 1.166 0 .412.068.754.275 1.097l13.681 23.731.618-1.029-.618 1.097 3.85 6.653 23.237 40.122H121.25zm69.712-169.61a2.4 2.4 0 0 1 2.063-1.234h25.987c.413 0 .757.137 1.101.274 0 0 .068 0 .068.068.275.206.344.412.55.755l11.894 20.781h32.656l11.963-20.712c.206-.343.481-.686.825-.892.412-.206.825-.343 1.237-.343h25.919c.825 0 1.581.411 2.063 1.097l12.1 20.85h57.474L336.3 108.372c-.481-.823-1.375-1.372-2.475-1.372H164.494c-.825 0-1.65.343-2.131 1.029a7 7 0 0 0-.688.823l-40.494 69.887H179zm1.032 96.842c-.207.342-.275.754-.275 1.165s.068.755.275 1.098l40.837 70.505h32.45l40.7-70.299c.207-.343.344-.823.344-1.235l.619-.069h-.619c0-.411-.137-.823-.344-1.234l-40.975-70.505h-32.175zm239.731-70.574h-51.562c-.275 0-.619 0-.894-.069h-56.581l27.156 46.912 13.612 23.525c.206.48.275.891.275 1.303s-.137.891-.343 1.234l-40.7 70.437h55.962a5.4 5.4 0 0 1 1.513-.206h51.562c.138 0 .275-.137.275-.274V184.706c0-.137-.137-.274-.275-.274M307.288 354.453c-.413.686-1.238 1.166-2.063 1.098h-25.85c-.413 0-.825-.138-1.237-.343l-.069-.206c-.275-.206-.55-.412-.688-.755l-12.169-20.918H232.9l-12.169 21.056c-.137.205-.344.411-.55.617l.069.137a2.4 2.4 0 0 1-1.238.343h-25.918c-.894 0-1.65-.48-2.063-1.235l-12.1-20.918H121.25l40.425 69.819c.206.343.481.686.756.892.55.617 1.238.96 2.063.96h169.331c.963 0 1.856-.48 2.475-1.372l40.562-70.299h-57.337z"/></svg>