<svg xmlns="http://www.w3.org/2000/svg" width="512" height="512" fill="none" viewBox="0 0 512 512"><path fill="#646464" d="M256.264 88c-75.139 0-126.702 26.915-126.714 51.038 0 24.123 52.162 51.037 126.737 51.037 74.563 0 126.713-26.914 126.713-51.037S330.838 88 256.264 88M383 178.308c-22.424 17.957-48.784 24.115-102.614 37.022C205.812 232.712 129 250.664 129 320.778v7.845c28.032-24.12 78.487-35.328 127.837-46.542h.022c61.678-14.022 126.14-28.616 126.14-64.503zm0 81.89c-26.909 21.88-74.566 32.54-121.669 43.193C196.29 317.977 129 333.113 129 373.49c0 8.984 7.298 18.521 20.752 26.929 26.921-17.945 68.969-28.036 109.332-37.572C320.204 348.272 383 333.128 383 295.546zm0 79.091c-26.357 22.432-73.459 33.664-118.871 44.317-33.085 7.869-66.726 15.712-90.277 27.48C195.161 418.955 223.754 424 256.287 424 330.298 424 383 397.614 383 372.939z"/></svg>