<svg xmlns="http://www.w3.org/2000/svg" width="512" height="512" fill="none" viewBox="0 0 512 512"><path fill="#646464" d="M238.989 407.924h-119.7A15.35 15.35 0 0 1 104 392.648v-116.28h.899c73.264 0 133.051 58.9 134.09 131.556m96.342 0h-51.236C283.043 309.783 202.737 230.375 104 229.932v-49.451h.899c126.452 0 229.533 101.891 230.432 227.443m57.38 0h-12.286C379.551 256.899 255.937 134.489 104 134.045v-14.693c0-8.385 6.891-15.276 15.289-15.276h96.773C303.285 135.54 373.255 202.661 408 287.768v105.019c0 8.398-6.891 15.137-15.289 15.137m-77.013-303.848h77.165a15.08 15.08 0 0 1 10.718 4.41A15.07 15.07 0 0 1 408 119.2v74.911c-11.527-15.732-25.916-33.567-40.001-47.652-15.884-15.732-34.454-29.957-52.288-42.396z"/></svg>