<svg xmlns="http://www.w3.org/2000/svg" width="512" height="512" fill="none" viewBox="0 0 512 512"><path fill="#646464" d="M334.161 128.043H185.324c-70.702-1.817-129.462 53.977-131.28 124.63-1.82 70.652 54.014 129.371 124.716 131.268a93 93 0 0 0 6.643 0H334.24c70.702-1.818 126.536-60.616 124.717-131.268-1.898-68.045-56.704-122.812-124.796-124.63m1.977 210.851a61 61 0 0 1-5.377 0H188.645c-45.79-1.502-81.694-39.752-80.192-85.51 1.424-43.624 36.459-78.713 80.192-80.136h142.116c45.79-1.501 84.067 34.378 85.49 80.136 1.503 45.758-34.323 84.008-80.113 85.51"/></svg>