<svg xmlns="http://www.w3.org/2000/svg" width="512" height="512" fill="none" viewBox="0 0 512 512"><path fill="#646464" d="M186.523 239.103c2.364-16.803 1.444-31.506.985-39.448-.132-1.969-.197-3.413-.197-4.463-.066-1.969-.985-49.227 26.201-76.729.46-.459.985-.919 1.445-1.378-15.958-5.317-58.444-16.738-84.121 1.509-15.563 11.027-22.721 31.506-21.276 60.845.46 9.255 6.304 42.139 16.286 74.826 11.557 37.872 24.756 61.829 36.183 65.636 1.838.591 7.354 2.428 15.234-7.023 11.033-13.324 21.474-24.614 25.939-29.34-1.313-1.116-2.561-2.231-3.743-3.478-10.375-10.83-15.103-25.73-12.936-40.957m153.005-103.509c15.038 17.525 22.459 36.822 23.05 43.254.065.854.065 1.576-.066 2.166.263 6.827-.525 12.406-1.445 18.313-.722 4.529-1.444 9.189-1.576 14.702-.197 5.186.46 10.634 1.182 16.475 1.708 14.112 3.612 30.062-6.304 46.077.197.262.46.525.657.853.591.722 1.182 1.444 1.707 2.166 38.153-59.598 51.221-129.172 39.269-144.465-15.563-19.823-37.496-30.193-65.208-30.784-11.885-.262-22.327 1.379-29.55 3.019 17.205 7.155 29.813 18.313 38.284 28.224m18.059 159.496a16 16 0 0 1-1.576-1.181c-.854.328-1.642.591-2.233.722-4.4 1.247-8.931 2.494-8.537 13.718.066.262.066.525.132.787.985.985 5.844 2.692 15.694 2.298 8.997-.328 18.453-2.298 24.166-4.989 7.223-3.413 12.477-7.482 14.972-10.173-.591.065-1.248.197-2.036.328-19.306 4.069-32.965 3.544-40.582-1.51m60.677-4.922c-1.314-4.004-6.173-12.865-22.918-9.452-9.588 1.969-16.155 2.429-20.489 2.297 15.892-26.254 28.894-56.513 36.249-84.999 5.122-19.888 11.754-55.856-1.576-72.856-18.847-23.957-46.23-36.756-79.327-37.15-18.058-.197-33.95 3.413-41.83 5.907-7.88-1.378-16.154-2.166-24.56-2.297-16.154-.263-30.338 3.347-42.421 10.633-17.73-6.104-67.309-19.888-99.946 3.15-20.488 14.572-30.01 39.842-28.237 75.22.59 11.355 6.895 45.945 16.942 78.829 5.779 18.837 11.886 34.524 18.256 46.536 8.865 16.737 18.19 26.583 28.631 30.061 5.976 1.969 17.008 3.348 28.5-7.088 3.808 5.579 10.9 9.123 17.73 10.83 15.432 3.807 29.485 2.625 41.239-3.282.131 3.15.197 6.235.263 8.598.065 2.626.131 5.251.262 7.745.723 17.656 1.905 30.456 5.254 39.513.197.525.46 1.379.788 2.232 1.707 5.12 4.531 13.784 11.557 20.413 6.305 5.973 14.382 8.992 23.903 8.992 3.678 0 7.552-.459 11.689-1.313 12.937-2.756 26.399-6.695 36.446-20.938 9.653-13.718 14.315-34.524 15.169-67.474.131-.919.197-1.772.328-2.625.132-1.182.263-2.429.394-3.61l4.137.328h.394c12.609.591 28.041-2.1 37.562-6.498 5.254-2.297 30.995-15.162 25.611-31.702m-29.485 23.891c-7.618 3.545-19.832 5.776-30.339 5.776-5.319 0-10.178-.591-13.855-1.838-1.708 15.819-5.516 46.208-7.618 58.548-3.94 22.973-14.184 33.343-37.824 38.463-4.006.853-7.683 1.247-10.967 1.247-22.59 0-29.682-17.853-32.637-25.139-3.611-8.992-4.859-39.972-4.531-69.968-8.274 7.942-18.912 12.077-30.995 12.077-4.794 0-9.784-.656-14.972-1.903-5.319-1.313-14.316-5.317-14.184-11.815.131-6.498 8.602-8.992 14.906-10.305 14.775-3.085 15.892-4.463 20.423-10.174a179 179 0 0 1 3.48-4.266c-.065-.394-.065-.853-.065-1.247-6.83-.066-13.462-1.903-19.504-5.185-3.743 3.938-14.709 15.752-26.464 29.93-6.764 8.139-13.265 10.567-18.518 10.567-2.167 0-4.071-.393-5.779-.919-14.644-4.857-28.631-28.814-41.567-71.149-9.851-32.293-16.089-65.899-16.614-76.86-1.576-32.49 6.763-55.397 24.822-68.131 32.703-23.104 85.762-4.988 96.531-.853 11.295-7.745 24.954-11.552 40.78-11.29 8.668.132 16.614 1.247 23.903 3.085 2.167-.984 19.897-6.957 42.421-6.76 30.536.328 55.752 12.077 72.957 33.999 8.077 10.371 8.077 34.262 0 65.571-8.011 31.112-22.984 64.521-41.108 92.022 2.561 2.1 10.77 5.973 35.132.985 7.486-1.576 11.952-.263 13.331 3.807 2.692 8.138-12.608 17.787-21.145 21.725m-177.303-14.243c.329-.328.657-.722.92-1.05.394.131.722.262 1.116.459-.657.197-1.313.394-2.036.591m137.049-17.197c-3.021-3.741-7.158-8.926-10.31-16.606-.525-1.247-2.101-4.069-3.94-7.351-9.85-17.656-30.339-54.347-17.205-73.053 6.107-8.73 18.256-12.077 36.248-10.108-2.167-6.761-8.077-20.347-19.372-33.737-12.739-15.096-35.394-33.278-70.658-33.868-17.927-.329-32.637 5.25-43.735 16.409-17.927 18.05-22.392 46.798-23.509 61.435 1.051-.591 2.167-1.247 3.481-1.903 4.334-2.232 13.068-6.039 22.655-7.089 15.892-1.707 26.333 5.317 29.419 19.757 8.471 39.119.723 56.447-4.99 69.049-1.051 2.363-2.036 4.594-2.89 6.76l-.722 1.904c-1.839 4.923-3.546 9.452-4.4 13.39 4.531-1.576 8.34.065 10.31.919 4.597 1.903 8.471 6.563 10.047 12.142.263.854.394 1.707.525 2.495.197.459.263.984.263 1.509-1.116 39.513.46 75.285 3.677 83.293 4.991 12.536 12.543 23.432 34.082 18.837 20.357-4.397 27.974-12.077 31.323-31.702 2.496-14.703 7.421-55.135 8.275-65.374v-.131c-1.051-18.706 9.456-21.66 14.512-23.104a269 269 0 0 1-3.086-3.873m-102.967 13.653c-2.627-1.182-4.4-1.904-7.815 1.969-2.101 2.363-3.611 4.266-4.99 5.973-5.845 7.351-8.274 9.648-25.282 13.193-4.531.919-6.699 1.903-7.684 2.494 1.248 1.05 4.072 2.56 7.29 3.347 12.87 3.216 30.798 3.413 43.078-13.783 1.576-2.232 1.116-4.989.722-6.433-.919-3.085-3.086-5.841-5.319-6.76m-10.441-24.942.722-1.904c.919-2.428 1.97-4.791 3.086-7.22 5.516-12.208 12.346-27.37 4.466-63.864-1.576-7.351-5.451-11.552-11.755-12.93-13.462-2.888-32.308 7.351-35.92 10.699.066.787.066 1.838.197 3.019.46 7.614 1.445 23.498-1.051 41.088-1.773 12.734 2.102 25.073 10.639 34 6.829 7.089 15.891 10.961 25.085 10.896.985-4.332 2.692-8.861 4.531-13.784m-6.042-69.378c-4.596-.59-8.34-5.316-8.011-7.81.065-.525.328-1.247 1.182-1.904 1.576-1.181 4.662-1.575 8.011-1.05 4.269.591 8.34 2.625 8.012 5.382-.132 1.116-1.051 2.429-2.496 3.479-1.707 1.313-3.677 1.969-5.647 1.969-.394 0-.722-.066-1.051-.066m123.718-3.938c.722-4.66 1.379-9.058 1.445-13.98-15.76-2.035-25.939.131-30.339 6.366-10.113 14.44 9.391 49.293 17.665 64.193 2.101 3.807 3.612 6.498 4.334 8.204a49 49 0 0 0 3.152 6.17c6.37-12.536 4.859-25.27 3.349-37.544-.722-5.842-1.445-11.88-1.248-17.722.132-5.973.92-10.895 1.642-15.687m-15.563 0c-.328.066-.657.066-.985.066-1.839 0-3.678-.657-5.254-1.838-1.247-.985-2.101-2.1-2.232-3.019-.329-2.298 3.611-4.07 7.42-4.595 3.218-.459 6.173-.065 7.552 1.05.657.46.854 1.051.854 1.379.328 1.903-2.955 6.366-7.355 6.957"/></svg>