<svg xmlns="http://www.w3.org/2000/svg" width="512" height="512" fill="none" viewBox="0 0 512 512"><style>@media (prefers-color-scheme:dark){path{fill:#fff}}</style><path fill="#000" d="M193.629 240.712c2.14-15.203 1.308-28.505.892-35.691-.119-1.781-.179-3.088-.179-4.038-.059-1.781-.891-44.539 23.71-69.421.416-.416.892-.832 1.308-1.247-14.44-4.811-52.887-15.144-76.121 1.366-14.084 9.976-20.561 28.504-19.254 55.05.416 8.373 5.705 38.125 14.737 67.699 10.459 34.265 22.403 55.941 32.743 59.385 1.663.534 6.655 2.197 13.786-6.354 9.983-12.055 19.431-22.27 23.472-26.545-1.189-1.01-2.318-2.019-3.387-3.148-9.389-9.798-13.668-23.279-11.707-37.056m138.456-93.651c13.608 15.856 20.323 33.315 20.858 39.135.059.772.059 1.425-.06 1.96.238 6.176-.475 11.224-1.307 16.568-.654 4.098-1.307 8.314-1.426 13.303-.178 4.691.416 9.62 1.07 14.905 1.545 12.768 3.268 27.199-5.705 41.689.178.237.416.475.594.772.535.653 1.07 1.306 1.545 1.959 34.525-53.921 46.35-116.87 35.535-130.706-14.083-17.935-33.93-27.318-59.007-27.852-10.756-.238-20.204 1.247-26.74 2.732 15.569 6.473 26.978 16.568 34.643 25.535m16.342 144.306a15 15 0 0 1-1.426-1.069c-.773.297-1.486.535-2.021.654-3.981 1.128-8.081 2.256-7.725 12.411.06.238.06.475.119.713.891.891 5.289 2.435 14.202 2.078 8.141-.297 16.698-2.078 21.868-4.513 6.536-3.088 11.29-6.77 13.548-9.205-.534.06-1.129.178-1.842.297-17.47 3.682-29.83 3.207-36.723-1.366m54.907-4.453c-1.189-3.623-5.586-11.64-20.739-8.552-8.676 1.782-14.618 2.197-18.54 2.079 14.38-23.755 26.146-51.131 32.802-76.904 4.635-17.994 10.636-50.537-1.427-65.918-17.054-21.676-41.833-33.256-71.783-33.612-16.341-.178-30.722 3.088-37.852 5.345-7.131-1.247-14.618-1.96-22.225-2.079-14.618-.237-27.453 3.029-38.387 9.621-16.044-5.523-60.909-17.994-90.442 2.85-18.54 13.184-27.156 36.047-25.552 68.056.535 10.273 6.239 41.569 15.331 71.321 5.229 17.044 10.756 31.237 16.52 42.104 8.022 15.144 16.46 24.051 25.908 27.199 5.408 1.781 15.391 3.028 25.79-6.414 3.447 5.048 9.864 8.255 16.044 9.799 13.965 3.444 26.681 2.375 37.318-2.97.119 2.851.178 5.642.238 7.78.059 2.375.119 4.751.237 7.007.654 15.975 1.724 27.555 4.754 35.75.179.475.416 1.247.713 2.019 1.545 4.632 4.101 12.471 10.459 18.469 5.704 5.404 13.013 8.136 21.63 8.136 3.328 0 6.834-.416 10.577-1.188 11.707-2.494 23.888-6.057 32.98-18.944 8.735-12.411 12.954-31.236 13.727-61.048.119-.831.178-1.603.297-2.375.119-1.069.238-2.197.356-3.266l3.744.297h.357c11.409.534 25.373-1.901 33.99-5.879 4.754-2.079 28.047-13.718 23.175-28.683m-26.681 21.616c-6.893 3.207-17.946 5.226-27.454 5.226-4.813 0-9.21-.535-12.538-1.663-1.545 14.312-4.992 41.807-6.893 52.971-3.566 20.785-12.836 30.168-34.228 34.8-3.625.772-6.952 1.129-9.924 1.129-20.441 0-26.859-16.153-29.533-22.745-3.268-8.136-4.397-36.166-4.1-63.305-7.487 7.186-17.114 10.927-28.048 10.927-4.338 0-8.854-.594-13.548-1.722-4.814-1.188-12.955-4.81-12.836-10.689s7.785-8.136 13.489-9.324c13.371-2.791 14.381-4.038 18.481-9.204a162 162 0 0 1 3.149-3.861c-.059-.356-.059-.772-.059-1.128-6.18-.059-12.182-1.722-17.649-4.691-3.387 3.563-13.311 14.252-23.947 27.079-6.121 7.364-12.004 9.561-16.758 9.561-1.961 0-3.684-.356-5.229-.831-13.251-4.394-25.908-26.07-37.615-64.374-8.913-29.217-14.558-59.622-15.034-69.54-1.426-29.395 6.121-50.121 22.462-61.642 29.593-20.903 77.607-4.513 87.352-.772 10.221-7.007 22.581-10.451 36.902-10.214 7.844.119 15.034 1.128 21.63 2.791 1.961-.89 18.005-6.295 38.387-6.116 27.632.297 50.451 10.926 66.02 30.761 7.309 9.383 7.309 30.999 0 59.326-7.25 28.149-20.799 58.376-37.199 83.258 2.317 1.9 9.745 5.404 31.791.891 6.774-1.425 10.815-.238 12.063 3.444 2.436 7.364-11.409 16.094-19.134 19.657M216.21 295.643c.297-.297.594-.653.832-.95.357.119.654.238 1.01.416-.594.178-1.188.356-1.842.534m124.016-15.559c-2.733-3.385-6.477-8.076-9.329-15.024-.475-1.129-1.902-3.682-3.565-6.651-8.914-15.975-27.454-49.171-15.569-66.096 5.526-7.898 16.519-10.927 32.801-9.145-1.961-6.117-7.309-18.41-17.53-30.525-11.528-13.658-32.029-30.108-63.939-30.642-16.222-.297-29.533 4.751-39.576 14.846-16.222 16.331-20.263 42.342-21.273 55.585.95-.535 1.961-1.129 3.149-1.723 3.922-2.019 11.825-5.463 20.501-6.413 14.381-1.544 23.829 4.81 26.622 17.875 7.665 35.393.653 51.071-4.516 62.473-.951 2.138-1.843 4.157-2.615 6.117l-.654 1.722c-1.664 4.454-3.209 8.551-3.981 12.114 4.1-1.425 7.547.06 9.329.832 4.16 1.722 7.666 5.938 9.092 10.986.238.772.357 1.544.476 2.257.178.415.237.891.237 1.366-1.01 35.75.416 68.115 3.328 75.36 4.516 11.342 11.35 21.2 30.841 17.043 18.421-3.979 25.314-10.927 28.344-28.683 2.258-13.302 6.715-49.884 7.488-59.148v-.118c-.951-16.925 8.557-19.598 13.132-20.904-.772-.95-1.723-2.138-2.793-3.504m-93.175 12.352c-2.377-1.069-3.982-1.722-7.072 1.782-1.901 2.138-3.268 3.86-4.516 5.404-5.288 6.651-7.487 8.73-22.878 11.936-4.1.832-6.061 1.723-6.952 2.257 1.129.95 3.684 2.316 6.596 3.029 11.647 2.91 27.869 3.088 38.981-12.471 1.427-2.019 1.011-4.513.654-5.82-.832-2.791-2.793-5.285-4.813-6.117m-9.448-22.566.653-1.722c.832-2.197 1.783-4.335 2.793-6.533 4.992-11.045 11.172-24.763 4.041-57.781-1.426-6.652-4.932-10.452-10.637-11.699-12.182-2.613-29.236 6.651-32.504 9.679.059.713.059 1.663.178 2.732.416 6.889 1.307 21.26-.951 37.175-1.604 11.521 1.902 22.686 9.627 30.762 6.18 6.414 14.38 9.917 22.699 9.858.892-3.92 2.437-8.017 4.101-12.471m-5.467-62.77c-4.16-.535-7.547-4.81-7.25-7.067.059-.475.297-1.128 1.07-1.722 1.426-1.069 4.219-1.426 7.249-.95 3.863.534 7.547 2.375 7.25 4.869-.119 1.01-.951 2.197-2.258 3.148-1.545 1.187-3.328 1.781-5.111 1.781-.356 0-.653-.059-.95-.059m111.953-3.563c.653-4.217 1.248-8.196 1.307-12.649-14.261-1.841-23.472.118-27.453 5.76-9.152 13.065 8.497 44.598 15.984 58.079 1.902 3.444 3.269 5.879 3.922 7.423a44.6 44.6 0 0 0 2.853 5.582c5.764-11.342 4.397-22.863 3.03-33.968-.653-5.286-1.307-10.749-1.129-16.034.119-5.404.832-9.858 1.486-14.193m-14.083 0c-.298.059-.595.059-.892.059-1.664 0-3.327-.594-4.754-1.663-1.129-.891-1.901-1.9-2.02-2.731-.297-2.079 3.268-3.682 6.715-4.157 2.912-.416 5.586-.06 6.833.95.595.415.773.95.773 1.247.297 1.722-2.674 5.76-6.655 6.295"/></svg>