<svg xmlns="http://www.w3.org/2000/svg" width="512" height="512" fill="none" viewBox="0 0 512 512"><path fill="#646464" d="M256.192 80C163.871 80 88.165 151.28 81 241.876l94.241 38.984c7.985-5.441 17.626-8.653 28.014-8.653.923 0 1.832.058 2.755.088l41.919-60.75v-.865c0-36.593 29.714-66.352 66.285-66.352 36.541 0 66.285 29.788 66.285 66.396s-29.744 66.367-66.285 66.367h-1.539l-59.721 42.694c0 .763.059 1.54.059 2.332 0 27.5-22.198 49.808-49.67 49.808-23.956 0-44.19-17.204-48.805-39.996L87.066 303.96C107.959 377.836 175.71 432 256.192 432 353.29 432 432 353.196 432 256S353.276 80 256.192 80m-65.039 267.08-21.582-8.947c3.838 7.964 10.461 14.652 19.252 18.334 19.004 7.905 40.923-1.115 48.82-20.167 3.853-9.24 3.868-19.345.073-28.585s-10.989-16.442-20.175-20.284c-9.143-3.814-18.901-3.652-27.517-.44l22.315 9.24c14.007 5.866 20.645 22 14.784 36.006-5.817 14.036-21.948 20.68-35.97 14.843m167.251-136.444c0-24.376-19.824-44.22-44.176-44.22-24.395 0-44.175 19.844-44.175 44.22 0 24.42 19.78 44.22 44.175 44.22 24.366 0 44.176-19.8 44.176-44.22m-77.26-.073c0-18.363 14.843-33.235 33.187-33.235 18.3 0 33.201 14.872 33.201 33.235 0 18.348-14.901 33.22-33.201 33.22-18.359 0-33.187-14.872-33.187-33.22"/></svg>