<svg xmlns="http://www.w3.org/2000/svg" width="512" height="512" fill="none" viewBox="0 0 512 512"><style>@media (prefers-color-scheme:dark){path{fill:#fff}}</style><path fill="#000" d="M117.89 132.669a32.9 32.9 0 0 1 12.067-15.714A33 33 0 0 1 148.866 111h214.382c13.903 0 26.311 8.717 31.019 21.786l35.787 99.291a32.9 32.9 0 0 1 .92 19.299 32.92 32.92 0 0 1-10.072 16.494L279.956 392.698a32.97 32.97 0 0 1-21.679 8.301 32.98 32.98 0 0 1-21.778-8.037L91.373 267.328a32.93 32.93 0 0 1-10.317-16.615 32.9 32.9 0 0 1 .93-19.529zm176.557 71.6-133.613 81.124 84.186 73.358c6.688 5.846 16.705 5.802 23.364-.087l82.764-73.271h-59.957l91.504-57.975c7.158-4.805 10.12-13.874 7.202-21.976l-18.187-50.488a22.5 22.5 0 0 0-8.307-10.832 22.54 22.54 0 0 0-13.047-4.039H161.318a22.53 22.53 0 0 0-12.814 4.115 22.5 22.5 0 0 0-8.174 10.682l-18.011 49.375z"/></svg>